<svg width="24" height="24" viewBox="0 0 24 24" fill="#0891B2" xmlns="http://www.w3.org/2000/svg">
<path d="M4.3986 4.3986C6.34317 2.45406 9.0317 1.25 12 1.25C14.9683 1.25 17.6568 2.45406 19.6014 4.3986C21.5459 6.34317 22.75 9.0317 22.75 12C22.75 14.9683 21.5459 17.6568 19.6014 19.6014C17.6568 21.5459 14.9683 22.75 12 22.75C9.0317 22.75 6.34317 21.5459 4.3986 19.6014C2.45406 17.6568 1.25 14.9683 1.25 12C1.25 9.0317 2.45407 6.34316 4.3986 4.3986ZM17.5303 9.53033C17.8232 9.23744 17.8232 8.76256 17.5303 8.46967C17.2374 8.17678 16.7626 8.17678 16.4697 8.46967L11 13.9393L8.53033 11.4697C8.23744 11.1768 7.76256 11.1768 7.46967 11.4697C7.17678 11.7626 7.17678 12.2374 7.46967 12.5303L10.4697 15.5303C10.7626 15.8232 11.2374 15.8232 11.5303 15.5303L17.5303 9.53033Z" fill="#0891B2"/>
</svg>
