<svg width="24" height="24" viewBox="0 0 24 24" fill="none" xmlns="http://www.w3.org/2000/svg">
<path fill-rule="evenodd" clip-rule="evenodd" d="M16.8624 17.4032C17.9763 15.9314 18.6689 14.0225 18.7433 11.478L20.2427 11.5219C20.1605 14.332 19.3866 16.5536 18.0585 18.3084C16.7361 20.0557 14.9054 21.2858 12.7963 22.1894C12.6077 22.2701 12.3943 22.2702 12.2057 22.1894C9.92295 21.2117 7.96683 19.8514 6.62842 17.8692L7.87157 17.0298C8.94748 18.6232 10.5288 19.7923 12.501 20.6808C14.3162 19.8628 15.7998 18.8072 16.8624 17.4032Z" fill="#1C1B1F"/>
<path fill-rule="evenodd" clip-rule="evenodd" d="M12.2399 1.7978C12.4098 1.73404 12.5971 1.73407 12.767 1.79789L19.7637 4.42569C20.0562 4.53556 20.25 4.81531 20.25 5.1278V9.5H18.75V5.64727L12.5032 3.30111L6.25 5.64744V11.0142C6.25 12.2512 6.39062 13.3417 6.64842 14.3064L5.19928 14.6936C4.90358 13.5872 4.75 12.365 4.75 11.0142V5.1278C4.75 4.81522 4.94386 4.53542 5.23652 4.4256L12.2399 1.7978Z" fill="#1C1B1F"/>
<path d="M4.63399 15.316C3.94738 14.6877 3.13925 13.3776 2.84035 13.3026C2.84035 13.3026 1.9417 15.5197 2.00031 17C2.05892 18.4803 3.4484 19.3176 4.91237 18.6102C6.37636 17.9029 22.0001 10 22.0001 10L17.5001 9L4.63399 15.316Z" fill="#1C1B1F"/>
<path fill-rule="evenodd" clip-rule="evenodd" d="M17.1695 8.32675C17.3225 8.25167 17.4964 8.2309 17.6627 8.26786L22.1627 9.26786C22.472 9.33659 22.7048 9.59226 22.7442 9.90663C22.7836 10.221 22.6213 10.5262 22.3386 10.6693L22 10C22.3386 10.6693 22.3387 10.6692 22.3386 10.6693L19.8743 11.9152C18.3866 12.6672 16.3878 13.6772 14.3432 14.7094C10.2596 16.7708 5.97835 18.9281 5.23862 19.2855C4.31293 19.7328 3.33652 19.7201 2.5584 19.2773C1.77908 18.8339 1.28964 18.0092 1.25086 17.0297C1.21643 16.16 1.45774 15.1365 1.67876 14.3847C1.79265 13.9972 1.90819 13.6592 1.99533 13.4176C2.03899 13.2966 2.07574 13.1992 2.10192 13.1312C2.11501 13.0972 2.12547 13.0706 2.13284 13.0519L2.14152 13.0301L2.14403 13.0239L2.1448 13.022C2.14484 13.0219 2.14524 13.0209 2.84032 13.3026L2.14524 13.0209C2.28573 12.6743 2.6601 12.4841 3.02285 12.5752C3.23597 12.6286 3.39123 12.7543 3.46073 12.8134C3.54974 12.889 3.63414 12.9769 3.70826 13.0595C3.85669 13.2249 4.02296 13.436 4.18231 13.6395C4.19236 13.6524 4.20239 13.6652 4.21241 13.678C4.41369 13.9352 4.61032 14.1864 4.79598 14.401L17.1695 8.32675ZM2.48936 13.9564C2.48911 13.9562 2.48959 13.9566 2.48936 13.9564C2.47667 13.9456 2.47661 13.9473 2.48936 13.9564ZM3.13816 14.7393C3.42733 15.1086 3.78392 15.5548 4.12764 15.8694C4.35532 16.0777 4.68741 16.1253 4.96446 15.9893L17.5943 9.78924L19.7898 10.2771L19.1976 10.5765C17.7101 11.3284 15.7115 12.3383 13.6672 13.3703C9.57293 15.4371 5.31032 17.585 4.58605 17.9349C4.04778 18.195 3.59746 18.1427 3.30019 17.9736C3.00412 17.8051 2.76951 17.4711 2.74968 16.9703C2.72551 16.3597 2.90422 15.5345 3.11787 14.8077C3.12462 14.7847 3.13139 14.7619 3.13816 14.7393Z" fill="#1C1B1F"/>
<path fill-rule="evenodd" clip-rule="evenodd" d="M9.1642 8.32919C9.34211 8.24023 9.54807 8.22559 9.73678 8.28848L14.2371 9.78848C14.6301 9.91946 14.8425 10.3442 14.7115 10.7372C14.5805 11.1301 14.1558 11.3425 13.7628 11.2115L9.55719 9.80975L9.5059 9.8354L10.6705 12.1646C10.8557 12.5351 10.7056 12.9856 10.3351 13.1708C9.9646 13.3561 9.5141 13.2059 9.32886 12.8354L7.82886 9.83541C7.64362 9.46493 7.79378 9.01443 8.16425 8.82919L9.1642 8.32919Z" fill="#1C1B1F"/>
</svg>
