<svg width="24" height="24" viewBox="0 0 24 24" fill="#0891B2" xmlns="http://www.w3.org/2000/svg">
<path d="M3 4.25C2.0335 4.25 1.25 5.0335 1.25 6V18C1.25 18.9665 2.0335 19.75 3 19.75H21C21.9665 19.75 22.75 18.9665 22.75 18V6C22.75 5.0335 21.9665 4.25 21 4.25H3ZM21.25 9.25V10.75H2.75V9.25H21.25ZM14.5 13.75H18.5C18.9142 13.75 19.25 14.0858 19.25 14.5C19.25 14.9142 18.9142 15.25 18.5 15.25H14.5C14.0858 15.25 13.75 14.9142 13.75 14.5C13.75 14.0858 14.0858 13.75 14.5 13.75Z" fill="#0891B2"/>
</svg>
